<svg xmlns="http://www.w3.org/2000/svg" xmlns:xlink="http://www.w3.org/1999/xlink" width="16" height="16" viewBox="0 0 16 16">
  <defs>
    <clipPath id="clip-path">
      <rect id="Rectangle_20130" data-name="Rectangle 20130" width="13" height="10.482" fill="none"/>
    </clipPath>
  </defs>
  <g id="Group_36162" data-name="Group 36162" transform="translate(8399 2259)">
    <rect id="Rectangle_20232" data-name="Rectangle 20232" width="16" height="16" rx="8" transform="translate(-8399 -2259)"/>
    <g id="Group_36161" data-name="Group 36161" transform="translate(-8397.5 -2256.241)">
      <g id="Group_36021" data-name="Group 36021" clip-path="url(#clip-path)">
        <path id="Path_40544" data-name="Path 40544" d="M71.135,4.51v-.1h.157a.47.47,0,0,0,.419-.19,1.033,1.033,0,0,0,.076-.5V.79a.923.923,0,0,0-.1-.541.506.506,0,0,0-.4-.152h-.157V0h1.833a4.026,4.026,0,0,1,1.54.23,1.825,1.825,0,0,1,.847.764,2.351,2.351,0,0,1,.323,1.238,2.55,2.55,0,0,1-.161.919,1.945,1.945,0,0,1-.478.719,2.23,2.23,0,0,1-.792.47,3.267,3.267,0,0,1-1.1.17ZM73.1.228a2.238,2.238,0,0,0-.323.025c-.113.017-.236.041-.366.072l-.01,0V4.206l.01,0a3.371,3.371,0,0,0,.715.094,1.8,1.8,0,0,0,.719-.143,1.674,1.674,0,0,0,.575-.408,1.914,1.914,0,0,0,.381-.642,2.455,2.455,0,0,0,.138-.844,2.491,2.491,0,0,0-.136-.847,1.879,1.879,0,0,0-.381-.642,1.658,1.658,0,0,0-.583-.406A1.907,1.907,0,0,0,73.1.228" transform="translate(-69.253)" fill="#e8b934"/>
        <path id="Path_40545" data-name="Path 40545" d="M274.185,4.468v-.1h.148a.476.476,0,0,0,.42-.18,1,1,0,0,0,.076-.5V.259h-.56a1.93,1.93,0,0,0-.365.03.621.621,0,0,0-.267.117.61.61,0,0,0-.178.243,1.537,1.537,0,0,0-.1.391h-.1V0h3.891V1.04H277.1a1.414,1.414,0,0,0-.088-.355.688.688,0,0,0-.166-.246.622.622,0,0,0-.25-.137,1.225,1.225,0,0,0-.339-.042H275.6V3.694a.926.926,0,0,0,.094.532.511.511,0,0,0,.4.145h.144v.1Z" transform="translate(-266.029 -0.001)" fill="#e8b934"/>
        <path id="Path_40546" data-name="Path 40546" d="M7.136,197.525a2.5,2.5,0,0,1-.092-1.35.668.668,0,0,0-.013-.388,3.73,3.73,0,0,1-.252-1.715,1.062,1.062,0,0,0-.174-.618c-.018-.036-.036-.07-.052-.1a.058.058,0,0,0-.1,0c-.016.033-.034.068-.052.1a1.062,1.062,0,0,0-.175.618,3.729,3.729,0,0,1-.252,1.715.668.668,0,0,0-.013.388,2.5,2.5,0,0,1-.092,1.35c-.091-.009-.183-.021-.273-.033a2.128,2.128,0,0,0,.14-1.2.067.067,0,0,0-.114-.035,3.97,3.97,0,0,0-.865,1.068c-.088-.023-.176-.048-.262-.075a2.759,2.759,0,0,1,.624-.831,2.2,2.2,0,0,0,.786-2.033.352.352,0,0,0-.012-.057l-.008-.033a.069.069,0,0,0-.067-.05.069.069,0,0,0-.044.016l-.026.021-.041.032-.186.13-.025.017c-.076.053-.132.089-.187.125s-.13.084-.224.152a.341.341,0,0,0-.141.165,2.43,2.43,0,0,1-.632.934c-.04.037-.085.074-.132.113a1.321,1.321,0,0,0-.58.959c-.059-.028-.107-.052-.162-.081L3.38,196.8a1.417,1.417,0,0,1,.563-1.008,1.918,1.918,0,0,0,.586-.8.058.058,0,0,0,0-.053.043.043,0,0,0-.036-.019H4.482c-.02,0-1.98.176-2.54.874-.06-.057-.12-.115-.177-.174a2.634,2.634,0,0,1,.736-.476,5.448,5.448,0,0,1,1.354-.394c.2-.036.38-.071.573-.124a2.227,2.227,0,0,0,1.643-1.6,3.74,3.74,0,0,0,.119-.539.129.129,0,0,0-.128-.15H5.9a.191.191,0,0,0-.179.126,3.2,3.2,0,0,1-.569.925,1.8,1.8,0,0,1-1.2.575l-.3.035c-.147.017-.3.025-.451.033a5.547,5.547,0,0,0-.614.055,2.728,2.728,0,0,0-1.4.845c-.042-.06-.083-.122-.122-.183a2.538,2.538,0,0,1,1.431-.887h0a.081.081,0,0,0,0-.144,3.6,3.6,0,0,0-1.308-.33,1.043,1.043,0,0,0-.664.2c-.023-.076-.044-.152-.064-.229a1.385,1.385,0,0,1,.716-.184,2.843,2.843,0,0,1,.856.159,6.579,6.579,0,0,0,1.451.33c.065.006.13.008.193.008a1.421,1.421,0,0,0,1.373-.832,2.929,2.929,0,0,0,.152-.3.141.141,0,0,0-.128-.2H0v-.214H13v.214H7.919a.141.141,0,0,0-.128.2,2.923,2.923,0,0,0,.152.3,1.421,1.421,0,0,0,1.373.832c.063,0,.128,0,.193-.008a6.579,6.579,0,0,0,1.451-.33,2.843,2.843,0,0,1,.856-.159,1.385,1.385,0,0,1,.716.184c-.019.077-.041.154-.064.229a1.043,1.043,0,0,0-.664-.2,3.6,3.6,0,0,0-1.308.33.081.081,0,0,0,0,.144h0a2.54,2.54,0,0,1,1.431.887c-.039.062-.08.124-.122.183a2.727,2.727,0,0,0-1.4-.845,5.547,5.547,0,0,0-.615-.055c-.149-.008-.3-.016-.451-.033l-.3-.035a1.8,1.8,0,0,1-1.2-.575,3.2,3.2,0,0,1-.569-.925.191.191,0,0,0-.179-.126H6.938a.129.129,0,0,0-.128.15,3.739,3.739,0,0,0,.119.539,2.227,2.227,0,0,0,1.643,1.6c.193.053.377.087.573.124a5.448,5.448,0,0,1,1.354.394,2.633,2.633,0,0,1,.736.476c-.057.059-.117.117-.177.174-.56-.7-2.521-.872-2.54-.874H8.512a.043.043,0,0,0-.036.019.058.058,0,0,0,0,.053,1.918,1.918,0,0,0,.586.8A1.417,1.417,0,0,1,9.62,196.8l-.052.027c-.055.028-.1.053-.162.081a1.321,1.321,0,0,0-.58-.959c-.048-.039-.093-.077-.132-.113a2.43,2.43,0,0,1-.632-.934.341.341,0,0,0-.141-.165c-.094-.068-.157-.109-.224-.152s-.111-.072-.187-.125l-.025-.017-.187-.13-.04-.031-.026-.021a.07.07,0,0,0-.046-.017.069.069,0,0,0-.067.049l-.008.033a.359.359,0,0,0-.012.058,2.2,2.2,0,0,0,.786,2.033,2.759,2.759,0,0,1,.624.831c-.086.026-.174.051-.262.075a3.973,3.973,0,0,0-.866-1.068.065.065,0,0,0-.047-.02.067.067,0,0,0-.066.056,2.129,2.129,0,0,0,.14,1.2c-.09.013-.182.024-.273.033" transform="translate(0 -187.043)" fill="#fff"/>
      </g>
    </g>
  </g>
</svg>
