<svg xmlns="http://www.w3.org/2000/svg" xmlns:xlink="http://www.w3.org/1999/xlink" width="32" height="32" viewBox="0 0 32 32">
  <defs>
    <clipPath id="clip-path">
      <rect id="Rectangle_20130" data-name="Rectangle 20130" width="26" height="20.964" fill="none"/>
    </clipPath>
  </defs>
  <g id="Group_36162" data-name="Group 36162" transform="translate(8399 2259)">
    <rect id="Rectangle_20232" data-name="Rectangle 20232" width="32" height="32" rx="16" transform="translate(-8399 -2259)"/>
    <g id="Group_36161" data-name="Group 36161" transform="translate(-8396 -2253.482)">
      <g id="Group_36021" data-name="Group 36021" clip-path="url(#clip-path)">
        <path id="Path_40544" data-name="Path 40544" d="M71.135,9.019V8.825h.315a.94.94,0,0,0,.838-.38,2.065,2.065,0,0,0,.152-1V1.579A1.846,1.846,0,0,0,72.245.5a1.012,1.012,0,0,0-.8-.3h-.315V0H74.8a8.053,8.053,0,0,1,3.08.459,3.651,3.651,0,0,1,1.694,1.528,4.7,4.7,0,0,1,.645,2.475A5.1,5.1,0,0,1,79.9,6.3a3.89,3.89,0,0,1-.957,1.439,4.461,4.461,0,0,1-1.583.941,6.533,6.533,0,0,1-2.2.34ZM75.069.456a4.476,4.476,0,0,0-.646.05c-.227.033-.473.082-.732.144l-.02,0V8.411l.021,0a6.742,6.742,0,0,0,1.431.188,3.609,3.609,0,0,0,1.439-.287,3.348,3.348,0,0,0,1.15-.816,3.829,3.829,0,0,0,.761-1.283,4.909,4.909,0,0,0,.276-1.688,4.983,4.983,0,0,0-.273-1.695,3.758,3.758,0,0,0-.761-1.283A3.316,3.316,0,0,0,76.548.739,3.813,3.813,0,0,0,75.069.456" transform="translate(-67.372)" fill="#e8b934"/>
        <path id="Path_40545" data-name="Path 40545" d="M275.114,8.936v-.2h.3a.952.952,0,0,0,.84-.36,2,2,0,0,0,.152-.994V.518h-1.119a3.861,3.861,0,0,0-.729.061,1.243,1.243,0,0,0-.534.233,1.221,1.221,0,0,0-.357.486,3.075,3.075,0,0,0-.2.782h-.205V0h7.782V2.08h-.1a2.828,2.828,0,0,0-.177-.711,1.376,1.376,0,0,0-.332-.492,1.244,1.244,0,0,0-.5-.274,2.45,2.45,0,0,0-.678-.085h-1.307V7.387a1.853,1.853,0,0,0,.188,1.063,1.022,1.022,0,0,0,.8.291h.289v.2Z" transform="translate(-258.802 -0.001)" fill="#e8b934"/>
        <path id="Path_40546" data-name="Path 40546" d="M14.272,202.926a4.993,4.993,0,0,1-.184-2.7,1.336,1.336,0,0,0-.026-.775,7.46,7.46,0,0,1-.5-3.429,2.125,2.125,0,0,0-.349-1.235c-.037-.071-.072-.14-.1-.206a.116.116,0,0,0-.209,0c-.032.066-.067.135-.1.206a2.125,2.125,0,0,0-.349,1.235,7.459,7.459,0,0,1-.5,3.429,1.337,1.337,0,0,0-.026.775,4.993,4.993,0,0,1-.184,2.7c-.182-.019-.365-.041-.546-.067a4.257,4.257,0,0,0,.279-2.4.133.133,0,0,0-.228-.071A7.939,7.939,0,0,0,9.5,202.52c-.176-.046-.352-.1-.525-.149a5.518,5.518,0,0,1,1.248-1.663,4.394,4.394,0,0,0,1.572-4.067.7.7,0,0,0-.023-.114c-.005-.02-.011-.041-.016-.065a.139.139,0,0,0-.134-.1.137.137,0,0,0-.088.031l-.053.043c-.033.027-.058.046-.083.064l-.373.261-.05.035c-.152.106-.265.179-.373.249-.134.087-.261.169-.449.3a.683.683,0,0,0-.282.329,4.861,4.861,0,0,1-1.264,1.868c-.079.074-.169.148-.264.227a2.642,2.642,0,0,0-1.16,1.918c-.119-.055-.214-.1-.323-.161l-.1-.054a2.834,2.834,0,0,1,1.127-2.017,3.836,3.836,0,0,0,1.172-1.594.115.115,0,0,0-.009-.107.085.085,0,0,0-.072-.038H8.965c-.039,0-3.96.352-5.08,1.747-.121-.113-.24-.23-.354-.348A5.268,5.268,0,0,1,5,198.169a10.9,10.9,0,0,1,2.708-.787c.391-.073.76-.142,1.145-.247a4.453,4.453,0,0,0,3.285-3.2,7.479,7.479,0,0,0,.239-1.079.259.259,0,0,0-.255-.3h-.329a.382.382,0,0,0-.359.252,6.407,6.407,0,0,1-1.138,1.849A3.606,3.606,0,0,1,7.907,195.8l-.6.07c-.295.034-.6.05-.9.066a11.094,11.094,0,0,0-1.229.11,5.456,5.456,0,0,0-2.794,1.69c-.083-.12-.165-.243-.243-.367A5.077,5.077,0,0,1,5.006,195.6h0l0,0a.161.161,0,0,0,0-.288,7.193,7.193,0,0,0-2.616-.66,2.086,2.086,0,0,0-1.328.391c-.046-.151-.089-.3-.127-.458a2.77,2.77,0,0,1,1.432-.368,5.686,5.686,0,0,1,1.712.317,13.158,13.158,0,0,0,2.9.659c.131.011.261.017.387.017a2.842,2.842,0,0,0,2.745-1.664,5.859,5.859,0,0,0,.3-.595.281.281,0,0,0-.257-.395H0l0-.429H26l0,.429H15.837a.281.281,0,0,0-.257.395,5.846,5.846,0,0,0,.3.595,2.842,2.842,0,0,0,2.745,1.664c.126,0,.256-.006.387-.017a13.158,13.158,0,0,0,2.9-.659,5.686,5.686,0,0,1,1.712-.317,2.77,2.77,0,0,1,1.432.368c-.038.154-.081.307-.127.458a2.087,2.087,0,0,0-1.329-.391,7.194,7.194,0,0,0-2.616.66.161.161,0,0,0,0,.288l0,0h0a5.08,5.08,0,0,1,2.862,1.773c-.078.124-.16.247-.243.367a5.455,5.455,0,0,0-2.793-1.69,11.1,11.1,0,0,0-1.23-.11c-.3-.016-.607-.032-.9-.066l-.6-.07a3.606,3.606,0,0,1-2.391-1.149,6.406,6.406,0,0,1-1.138-1.849.382.382,0,0,0-.359-.252h-.329a.259.259,0,0,0-.255.3,7.478,7.478,0,0,0,.239,1.079,4.453,4.453,0,0,0,3.285,3.2c.385.105.754.174,1.145.247a10.9,10.9,0,0,1,2.708.787,5.267,5.267,0,0,1,1.471.952c-.114.117-.233.234-.354.348-1.12-1.4-5.041-1.744-5.081-1.747h-.011a.085.085,0,0,0-.072.038.115.115,0,0,0-.009.107,3.836,3.836,0,0,0,1.172,1.594,2.834,2.834,0,0,1,1.127,2.017l-.1.053c-.109.057-.2.106-.323.161a2.642,2.642,0,0,0-1.16-1.918c-.1-.079-.185-.153-.264-.227a4.861,4.861,0,0,1-1.264-1.868.682.682,0,0,0-.282-.329c-.188-.135-.314-.217-.449-.3-.109-.07-.221-.143-.373-.249l-.05-.035L14.6,196.5c-.025-.017-.049-.037-.08-.062l-.051-.042a.141.141,0,0,0-.091-.034.139.139,0,0,0-.133.1c-.006.026-.012.047-.017.066a.717.717,0,0,0-.024.115,4.394,4.394,0,0,0,1.572,4.067,5.518,5.518,0,0,1,1.248,1.663c-.173.053-.349.1-.525.149a7.947,7.947,0,0,0-1.732-2.137.13.13,0,0,0-.094-.039.133.133,0,0,0-.132.112,4.257,4.257,0,0,0,.279,2.4c-.18.026-.364.048-.546.067" transform="translate(0 -181.962)" fill="#fff"/>
      </g>
    </g>
  </g>
</svg>
