<svg id="Location" xmlns="http://www.w3.org/2000/svg" width="18.199" height="26" viewBox="0 0 18.199 26">
  <path id="Path_34175" d="M9.154,22.1h0a1.07,1.07,0,0,1-.508-.154,23.991,23.991,0,0,1-6.29-5.912A12,12,0,0,1,0,9.275,9.316,9.316,0,0,1,4.591,1.218a8.955,8.955,0,0,1,9.145.075,9.431,9.431,0,0,1,3.283,3.476A9.645,9.645,0,0,1,18.2,9.44c-.057,2.909-1.53,6.037-4.15,8.808a24.376,24.376,0,0,1-4.366,3.666,1.525,1.525,0,0,1-.529.187ZM9.09,6.3a3.045,3.045,0,0,0-2.183.918,3.179,3.179,0,0,0-.675,3.433A3.08,3.08,0,0,0,9.089,12.6H9.11a3.025,3.025,0,0,0,2.168-.913,3.192,3.192,0,0,0-1-5.142A3.027,3.027,0,0,0,9.09,6.3Z" fill="#fff"/>
  <ellipse id="Ellipse_743" cx="6.5" cy="1.3" rx="6.5" ry="1.3" transform="translate(2.6 23.4)" fill="#e8b934"/>
</svg>
