<svg xmlns="http://www.w3.org/2000/svg" width="40" height="40" viewBox="0 0 40 40">
  <g id="Group_34980" data-name="Group 34980" transform="translate(18522 -1841)">
    <g id="Rectangle_2" data-name="Rectangle 2" transform="translate(-18522 1841)" fill="none" stroke="#fff" stroke-width="1">
      <rect width="40" height="40" rx="20" stroke="none"/>
      <rect x="0.5" y="0.5" width="39" height="39" rx="19.5" fill="none"/>
    </g>
    <path id="Vector" d="M6.25,4.213l.063,3.732L9.64,7.894a.383.383,0,0,1,.38.443l-.443,2.416a.4.4,0,0,1-.367.316l-2.847.051.152,9.172-3.8.063-.152-9.172-2.151.038a.373.373,0,0,1-.38-.38L0,8.438a.373.373,0,0,1,.38-.38L2.53,8.021,2.467,3.909A3.791,3.791,0,0,1,6.2.051L9.615,0a.373.373,0,0,1,.38.38l.051,3.036a.373.373,0,0,1-.38.38l-3.036.051A.362.362,0,0,0,6.25,4.213Z" transform="translate(-18507.021 1850.822)" fill="#fff"/>
  </g>
</svg>
