<svg xmlns="http://www.w3.org/2000/svg" width="793.883" height="233.385" viewBox="0 0 793.883 233.385">
  <g id="Group_38427" data-name="Group 38427" transform="translate(-293.086 -4783.954)">
    <path id="Path_450" data-name="Path 450" d="M-2268.431-16355.5s10.286,169.145-195.429,157.716-416.943-81.76-515.431-37.715-80,113.144-80,113.144" transform="translate(3354.508 21139.498)" fill="none" stroke="#31437a" stroke-width="1.5" stroke-dasharray="9" opacity="0.3"/>
    <g id="Group_309" data-name="Group 309" transform="matrix(-0.951, 0.309, -0.309, -0.951, 720.572, 4922.354)">
      <path id="Path_165" data-name="Path 165" d="M36.594,0,0,10.723l53.842,8.141Z" transform="translate(0.761 10.077)" fill="#fff"/>
      <path id="Path_231" data-name="Path 231" d="M55.154,28.444c.022-.021,0-.043-.022-.043L37.925,9.569a.763.763,0,0,0-.563-.26.654.654,0,0,0-.217.043L31.9,10.89,21.607.338,21.5.229a.732.732,0,0,0-1.214.217c-.043.043-.043.108-.065.151L12.657,16.525.543,20.079a.736.736,0,0,0-.542.78.78.78,0,0,0,.65.693C76.544,33.041-9.567,20.014,54.59,29.7a.747.747,0,0,0,.563-1.257m-3.944-2.08-24.4-12.417,5.071-1.474H31.9l5.223-1.539Zm-20.956-15-4.963,1.452L22.561,3.5ZM4.271,20.555l8.907-2.6,29.754,8.451Z" transform="translate(0 0)" fill="#31437a"/>
    </g>
  </g>
</svg>
