<svg xmlns="http://www.w3.org/2000/svg" width="22" height="22" viewBox="0 0 22 22"><g id="menu" transform="translate(-236 -256)"><path id="Vector" d="M0,0H22V22H0Z" transform="translate(236 256)" fill="none" opacity="0"/><path id="Vector-2" data-name="Vector" d="M5.427,2.713A2.713,2.713,0,1,1,2.713,0,2.713,2.713,0,0,1,5.427,2.713Z" transform="translate(249.365 258.649)" fill="#fff"/><path id="Vector-3" data-name="Vector" d="M5.427,2.713A2.713,2.713,0,1,1,2.713,0,2.713,2.713,0,0,1,5.427,2.713Z" transform="translate(239.208 258.649)" fill="#fff"/><path id="Vector-4" data-name="Vector" d="M5.427,2.713A2.713,2.713,0,1,1,2.713,0,2.713,2.713,0,0,1,5.427,2.713Z" transform="translate(249.365 269.924)" fill="#fff"/><path id="Vector-5" data-name="Vector" d="M5.427,2.713A2.713,2.713,0,1,1,2.713,0,2.713,2.713,0,0,1,5.427,2.713Z" transform="translate(239.208 269.924)" fill="#fff"/></g></svg>