<svg id="Iconly_Bulk_Message" data-name="Iconly/Bulk/Message" xmlns="http://www.w3.org/2000/svg" width="23.333" height="21" viewBox="0 0 23.333 21">
  <path id="Fill_1" data-name="Fill 1" d="M23.333,8.333a5.888,5.888,0,0,1-5.868,5.9H5.891A5.888,5.888,0,0,1,0,8.357V8.345S.007,3.182.016.585A.581.581,0,0,1,.959.127c2.772,2.2,7.729,6.209,7.791,6.261A4.745,4.745,0,0,0,11.7,7.427a4.682,4.682,0,0,0,2.952-1.051c.062-.041,4.908-3.93,7.722-6.166a.583.583,0,0,1,.946.455c.012,2.577.012,7.668.012,7.668" transform="translate(0 6.764)" fill="#e8b934"/>
  <path id="Fill_4" data-name="Fill 4" d="M22.134,3.12A5.874,5.874,0,0,0,16.948,0H5.3A5.874,5.874,0,0,0,.118,3.12,1.007,1.007,0,0,0,.376,4.377l8.662,6.929a3.3,3.3,0,0,0,2.077.734h.023a3.3,3.3,0,0,0,2.077-.734l8.662-6.929a1.007,1.007,0,0,0,.258-1.258" transform="translate(0.587)" fill="#fff"/>
</svg>
