<svg xmlns="http://www.w3.org/2000/svg" width="793.882" height="233.385" viewBox="0 0 793.882 233.385">
  <g id="Group_38428" data-name="Group 38428" transform="translate(-323.031 -5416.954)">
    <path id="Path_301" data-name="Path 301" d="M-3060.584-16355.5s-10.286,169.145,195.429,157.716,416.943-81.76,515.431-37.715,80,113.144,80,113.144" transform="translate(3384.508 21772.498)" fill="none" stroke="#31437a" stroke-width="1.5" stroke-dasharray="9" opacity="0.3"/>
    <g id="Group_280" data-name="Group 280" transform="matrix(0.951, 0.309, -0.309, 0.951, 698.604, 5527.107)">
      <path id="Path_165" data-name="Path 165" d="M178.921,156l-36.594-10.723,53.842-8.141Z" transform="translate(-141.565 -136.375)" fill="#fff"/>
      <path id="Path_231" data-name="Path 231" d="M191.825,132.688c.022.021,0,.043-.022.043L174.6,151.563a.763.763,0,0,1-.563.26.654.654,0,0,1-.217-.043l-5.244-1.539-10.294,10.553-.108.109a.732.732,0,0,1-1.214-.217c-.043-.043-.043-.108-.065-.151l-7.563-15.928-12.114-3.554a.736.736,0,0,1-.542-.78.78.78,0,0,1,.65-.693c75.892-11.488-10.219,1.538,53.939-8.149a.747.747,0,0,1,.563,1.257m-3.944,2.08-24.4,12.417,5.071,1.474h.022L173.8,150.2Zm-20.956,15-4.963-1.452-2.731,9.318Zm-25.983-9.188,8.907,2.6,29.754-8.451Z" transform="translate(-136.672 -131.432)" fill="#31437a"/>
    </g>
  </g>
</svg>
