<svg xmlns="http://www.w3.org/2000/svg" width="15" height="16.667" viewBox="0 0 15 16.667">
  <path id="Path_23251" data-name="Path 23251" d="M22.963,9.611A7.5,7.5,0,1,1,16.37,6.685V6.241H15.333a.624.624,0,0,1-.63-.63A.609.609,0,0,1,15.333,5h3.333a.63.63,0,0,1,0,1.259H17.63V6.7a7.483,7.483,0,0,1,3.185,1l.259-.315a.822.822,0,0,1,1.148-.111l.944.8a.824.824,0,0,1,.093,1.167ZM17,7.5a6.667,6.667,0,1,0,6.667,6.667A6.662,6.662,0,0,0,17,7.5ZM17,20a5.833,5.833,0,1,1,5.833-5.833A5.833,5.833,0,0,1,17,20Zm2.8-8.63a.414.414,0,0,0-.593,0l-1.519,1.519a1.465,1.465,0,1,0,.778,1.3,1.335,1.335,0,0,0-.185-.7l1.5-1.5A.42.42,0,0,0,19.8,11.37Z" transform="translate(-9.5 -5)" fill="#31437a" fill-rule="evenodd"/>
</svg>
