<svg xmlns="http://www.w3.org/2000/svg" xmlns:xlink="http://www.w3.org/1999/xlink" width="103.124" height="102.825" viewBox="0 0 103.124 102.825">
  <defs>
    <clipPath id="clip-path">
      <rect id="Rectangle_20225" data-name="Rectangle 20225" width="87.015" height="86.626" fill="#31437a"/>
    </clipPath>
  </defs>
  <g id="Group_36132" data-name="Group 36132" transform="matrix(0.978, -0.208, 0.208, 0.978, 0, 18.092)">
    <g id="Group_36131" data-name="Group 36131" transform="translate(0 0)" clip-path="url(#clip-path)">
      <path id="Path_40575" data-name="Path 40575" d="M39.653,14.983q0,6.6,0,13.2c0,1.371-.04,1.41-1.436,1.477C31.254,30,26.082,34.424,24.826,41.119c-1.609,8.577,5.934,16.789,14.607,15.9A13.589,13.589,0,0,0,51.961,43.876q.025-.471.056-.941a.84.84,0,0,1,.965-.9q2.545.025,5.092,0c.9-.009,1,.571,1,1.258A19.894,19.894,0,0,1,54.51,56.281C48.8,63.1,41.477,65.474,32.879,63.3a20.7,20.7,0,0,1,2.88-40.518c.944-.124,1.254-.551,1.25-1.486q-.045-9.807,0-19.616A1.964,1.964,0,0,1,37.42.326,1.63,1.63,0,0,1,38.85.074a1.67,1.67,0,0,1,.768,1.236c.09,1.63.035,3.267.035,4.9v8.771" transform="translate(5.13 0)" fill="#31437a"/>
      <path id="Path_40576" data-name="Path 40576" d="M65.471,32.536q4.244,0,8.487,0c1.111,0,1.723.453,1.756,1.267.034.852-.625,1.387-1.75,1.391-2.011.008-4.023,0-6.035,0-1.2,0-1.308.11-1.413,1.338a34.908,34.908,0,0,1-7.168,18.644A33.757,33.757,0,0,1,40.394,67.567c-1.157.3-1.582-.046-1.586-1.24-.008-2.828.043-5.659-.026-8.487a1.81,1.81,0,0,1,1.356-2.009c7.92-3.2,13.008-8.9,14.918-17.282a29.31,29.31,0,0,0,.493-4.485c.094-1.38.18-1.525,1.529-1.526q4.2-.006,8.393,0" transform="translate(11.3 9.48)" fill="#31437a"/>
      <path id="Path_40577" data-name="Path 40577" d="M10.291,42.526h-8.2a7.334,7.334,0,0,1-.754-.014,1.311,1.311,0,0,1-1.331-1.4,1.249,1.249,0,0,1,1.374-1.247c1.885-.019,3.771-.01,5.656-.01,2.117,0,2.117,0,2.305-2.135a34.808,34.808,0,0,1,25.1-30.292c1.3-.364,1.646-.1,1.649,1.273,0,3.048-.025,6.1.017,9.144a1.5,1.5,0,0,1-1.065,1.627Q22.018,24.91,20.125,38.916c-.112.837-.077,1.694-.111,2.541-.03.735-.275,1.111-1.145,1.092-2.858-.061-5.718-.023-8.577-.025" transform="translate(0 2.12)" fill="#31437a"/>
      <path id="Path_40578" data-name="Path 40578" d="M42.5,65.272c0,2.859-.005,5.719,0,8.579,0,.746-.266,1.379-1.021,1.462a2.129,2.129,0,0,1-1.377-.513c-.223-.178-.251-.686-.256-1.046-.022-1.947-.035-3.9,0-5.845.017-.9-.3-1.276-1.238-1.359A34.4,34.4,0,0,1,7.923,40.225c-.267-1.114-.068-1.4,1.042-1.4,2.921-.009,5.843.017,8.766-.017a1.262,1.262,0,0,1,1.378.967A23.025,23.025,0,0,0,36.65,54.961a29.146,29.146,0,0,0,4.395.467c1.38.089,1.455.111,1.455,1.454q0,4.2,0,8.39" transform="translate(2.278 11.308)" fill="#31437a"/>
      <path id="Path_40579" data-name="Path 40579" d="M54,28.728c-3.356-.834-5.584.8-7.762,3.15-3.5,3.779-7.264,7.31-10.917,10.946a6.722,6.722,0,0,1-.616.582,1.211,1.211,0,0,1-1.776-.094,1.248,1.248,0,0,1,0-1.789,8.206,8.206,0,0,1,.593-.607Q40.085,34.353,46.665,27.8a2.646,2.646,0,0,0,.86-2.082c-.043-2.261-.059-4.526.017-6.787a2.669,2.669,0,0,1,.679-1.637c3.8-3.847,7.647-7.641,11.47-11.462a1.414,1.414,0,0,1,2.553,1.094c-.013,2.011-.009,4.023,0,6.033,0,1.08.189,1.275,1.253,1.281q2.97.017,5.939,0c.7,0,1.348.083,1.636.828s-.124,1.222-.628,1.72Q64.844,22.32,59.288,27.9a2.475,2.475,0,0,1-1.99.841c-1.1-.046-2.2-.012-3.3-.012" transform="translate(9.484 1.518)" fill="#31437a"/>
      <path id="Path_40580" data-name="Path 40580" d="M37.441,27.311a2.233,2.233,0,0,1-.945,2.217c-1.3,1.232-2.532,2.535-3.768,3.832a4.7,4.7,0,0,0,6.616,6.67c1.663-1.579,3.258-3.232,4.884-4.852a2.409,2.409,0,0,1,2.509-.322,1.531,1.531,0,0,1,.495,1.023,11.029,11.029,0,1,1-12.989-10.65,10.764,10.764,0,0,1,1.78-.16c1.22-.032,1.413.176,1.419,1.415,0,.22,0,.439,0,.826" transform="translate(7.336 7.304)" fill="#31437a"/>
    </g>
  </g>
</svg>
